<?xml version="1.0" encoding="UTF-8"?>
<svg id="Layer_2" data-name="Layer 2" xmlns="http://www.w3.org/2000/svg" viewBox="0 0 40 30">
  <defs>
    <style>
      .cls-1 {
        stroke: #184e85;
        stroke-miterlimit: 10;
        stroke-width: 1.2px;
      }

      .cls-1, .cls-2 {
        fill: none;
      }

      .cls-3 {
        fill: #184e85;
      }
    </style>
  </defs>
  <g id="Layer_1-2" data-name="Layer 1">
    <g>
      <g>
        <path class="cls-1" d="m4.73,25.7c2.51,0,3.15,1.43,5.26,1.43,2.32,0,2.78-1.43,4.75-1.43,2.29,0,3.09,1.44,5.25,1.44s3.12-1.44,5.2-1.44,3.14,1.44,5.01,1.44,3.04-1.44,5.07-1.44"/>
        <path class="cls-1" d="m4.73,22.58c2.51,0,3.15,1.43,5.26,1.43,2.32,0,2.78-1.43,4.75-1.43,2.29,0,3.09,1.44,5.25,1.44s3.12-1.44,5.2-1.44,3.14,1.44,5.01,1.44,3.04-1.44,5.07-1.44"/>
        <path class="cls-3" d="m31.3,10.18c0-.25-.13-.49-.34-.62l-10.4-6.49c-.16-.13-.35-.2-.56-.2s-.4.07-.56.2l-10.4,6.51c-.21.13-.34.37-.34.62v11.19c.38.14.79.24,1.29.24,1.07,0,1.68-.34,2.32-.69.66-.36,1.34-.74,2.43-.74,1.28,0,2.17.42,2.94.79.19.09.37.17.55.25v-3.36h3.54v2.64c.29.19.38.25.68.44.78-.37,1.59-.76,2.75-.76s2.03.42,2.82.79c.72.33,1.39.65,2.19.65.39,0,.75-.07,1.1-.18v-11.27Z"/>
      </g>
      <rect class="cls-2" width="40" height="30"/>
    </g>
  </g>
</svg>