<?xml version="1.0" encoding="utf-8"?>
<!-- Generator: Adobe Illustrator 27.2.0, SVG Export Plug-In . SVG Version: 6.00 Build 0)  -->
<svg version="1.1" id="home" xmlns="http://www.w3.org/2000/svg" xmlns:xlink="http://www.w3.org/1999/xlink" x="0px" y="0px"
	 viewBox="0 0 15 15" style="enable-background:new 0 0 15 15;" xml:space="preserve">
<path d="M2,13.7C2,13.9,2.1,14,2.2,14H6v-3h3v3h3.7c0.1,0,0.2-0.1,0.2-0.2V8H2V13.7z M13.9,6.6L13,5.8L11,4L7.7,1.1
	C7.6,1,7.4,1,7.3,1.1l0,0L1.1,6.6C1,6.7,1,6.8,1.1,6.9c0,0,0.1,0.1,0.2,0.1L3,7h10.7C13.9,7,14,6.9,14,6.7C14,6.7,14,6.6,13.9,6.6
	L13.9,6.6z"/>
</svg>
