<?xml version="1.0" encoding="UTF-8"?>
<svg id="Layer_2" data-name="Layer 2" xmlns="http://www.w3.org/2000/svg" viewBox="0 0 40 30">
  <defs>
    <style>
      .cls-1, .cls-2, .cls-3 {
        fill: none;
      }

      .cls-1, .cls-3 {
        stroke: #184e85;
        stroke-miterlimit: 10;
        stroke-width: 2px;
      }

      .cls-3 {
        stroke-linecap: round;
      }
    </style>
  </defs>
  <g id="Layer_1-2" data-name="Layer 1">
    <g>
      <path class="cls-1" d="m4.05,26.64c2.63,0,3.29,1.46,5.5,1.46,2.42,0,2.9-1.46,4.96-1.46,2.39,0,3.23,1.47,5.49,1.47s3.26-1.47,5.43-1.47,3.28,1.47,5.23,1.47,3.18-1.47,5.29-1.47"/>
      <path class="cls-1" d="m4.05,22.66c2.63,0,3.29,1.46,5.5,1.46,2.42,0,2.9-1.46,4.96-1.46,2.39,0,3.23,1.47,5.49,1.47s3.26-1.47,5.43-1.47,3.28,1.47,5.23,1.47,3.18-1.47,5.29-1.47"/>
      <path class="cls-3" d="m17.82,20.49v-3.34c0-.28.23-.51.52-.51h3.32c.29,0,.52.23.52.51l.02,3.34"/>
      <path class="cls-3" d="m31.83,20.71l-.02-11.36c0-.26-.14-.5-.36-.63l-10.86-6.61c-.16-.13-.37-.21-.58-.21s-.42.07-.58.21l-10.86,6.63c-.22.13-.36.37-.36.63,0,0,.02,10.28.02,11.21"/>
    </g>
    <rect class="cls-2" width="40" height="30"/>
    <rect class="cls-2" width="40" height="30"/>
  </g>
</svg>