<?xml version="1.0" encoding="utf-8"?>
<!-- Generator: Adobe Illustrator 27.2.0, SVG Export Plug-In . SVG Version: 6.00 Build 0)  -->
<svg version="1.1" id="Layer_2_00000129911751066325587800000016942290149918586019_"
	 xmlns="http://www.w3.org/2000/svg" xmlns:xlink="http://www.w3.org/1999/xlink" x="0px" y="0px" viewBox="0 0 52.3 31"
	 style="enable-background:new 0 0 52.3 31;" xml:space="preserve">
<style type="text/css">
	.st0{fill:#14416F;}
	.st1{fill:none;stroke:#14416F;stroke-width:1.07;stroke-miterlimit:10;}
	.st2{fill:none;stroke:#14416F;stroke-width:1.12;stroke-miterlimit:10;}
	.st3{fill:none;stroke:#14416F;stroke-width:0.66;stroke-miterlimit:10;}
	.st4{fill:none;stroke:#14416F;stroke-width:0.39;stroke-miterlimit:10;}
	.st5{fill:none;stroke:#14416F;stroke-width:2.15;stroke-miterlimit:10;}
</style>
<g id="Layer_1-2">
	<g>
		<g>
			<path class="st0" d="M24.3,22.8h-2.5v-12l-3.7,1.2V10L24,7.8h0.3V22.8L24.3,22.8z"/>
			<g>
				<path class="st1" d="M1.3,25V0.5h9.6v24.7"/>
				<line class="st2" x1="1.3" y1="9.6" x2="8.3" y2="9.6"/>
				<line class="st3" x1="1.3" y1="15.6" x2="5.1" y2="15.6"/>
				<line class="st4" x1="1.3" y1="18.6" x2="4.8" y2="18.6"/>
				<line class="st3" x1="1.3" y1="3.5" x2="5.1" y2="3.5"/>
				<line class="st3" x1="1.3" y1="6.6" x2="5.1" y2="6.6"/>
				<line class="st3" x1="1.3" y1="12.6" x2="5.1" y2="12.6"/>
				<line class="st2" x1="1.3" y1="18.6" x2="8.3" y2="18.6"/>
				<line class="st3" x1="1.3" y1="21.7" x2="5.1" y2="21.7"/>
			</g>
			<g>
				<path class="st0" d="M29.1,22.8V18h-0.9v-1h0.9v-0.5c0-0.6,0.2-1.1,0.5-1.5c0.4-0.4,0.9-0.5,1.5-0.5c0.2,0,0.5,0,0.7,0.1l0,1
					c-0.1,0-0.3,0-0.5,0c-0.6,0-0.9,0.3-0.9,1V17h1.2v1h-1.2v4.8L29.1,22.8L29.1,22.8z"/>
				<path class="st0" d="M34.1,15.6V17h1v1h-1v3.2c0,0.2,0,0.4,0.1,0.5s0.2,0.1,0.5,0.1c0.2,0,0.3,0,0.5,0v1
					c-0.3,0.1-0.6,0.1-0.9,0.1c-1,0-1.5-0.5-1.5-1.7V18h-1v-1h1v-1.4H34.1L34.1,15.6z"/>
			</g>
			<path class="st5" d="M44,29.7c-2.1,0-4-1-5.3-2.6c-1.4,1.7-3.4,2.6-5.5,2.6s-3.8-1-5.3-2.6c-1.5,1.5-3.4,2.9-5.5,2.9
				s-3.9-1.1-5.2-2.7c-1.4,1.7-3.3,2.7-5.4,2.7s-3.9-1-5.3-2.6c-1.4,1.6-3.3,2.6-5.4,2.6c-0.1,0-0.2,0-0.3,0"/>
		</g>
		<path class="st0" d="M46.2,6.8c0.4,0,0.8,0.2,1,0.5l4.8,7.1c0.3,0.5,0.3,1.1,0,1.7l-4.8,7.1c-0.4,0.5-1.1,0.7-1.7,0.3
			s-0.7-1-0.4-1.6l4.6-6.7l-4.5-6.6C44.9,8.1,45,7.4,45.5,7C45.7,6.8,46,6.7,46.2,6.8L46.2,6.8z"/>
	</g>
</g>
</svg>
